# xmcd CD database file
#
# Track frame offsets:
#	150
#	12257
#	24095
#	37895
#	50191
#	63628
#	78407
#	91860
#	103503
#	115989
#	126919
#	140056
#	152378
#	165561
#	179274
#	189700
#	201799
#	212349
#	223123
#	235113
#	245777
#	257386
#	268117
#	281502
#	295013
#	306599
#	319681
#
# Disc length: 4437 seconds
#
# Revision: 1
# Processed by: cddbd v1.5.2PL0 Copyright (c) Steve Scherf et al.
# Submitted via: Feurio! 1.68 - http://www.feurio.com
#
DISCID=8411531b
DTITLE=Various Artist - Queen of Hits - The Macy's Recording Story
DYEAR=1945
DGENRE=R&B
TTITLE0=Lester Williams - Wintertime Blues
TTITLE1=Lester Williams - I Know That Chick
TTITLE2=Cab McMillan - Three Women Blues
TTITLE3=Cab McMillan - I'm Young and Able
TTITLE4=Smokey Hogg - Leaving You Baby
TTITLE5=Clarence Garlow - Bon Ton Roula
TTITLE6=Harry Choates - Harry's Blues
TTITLE7=Tommy Scott - Tennessee
TTITLE8=Tommy Scott - When a Man Gets the Blues
TTITLE9=Smokey Hogg - You Gotta Go
TTITLE10=Hubert Robison - I Love You Baby
TTITLE11=Hubert Robison - High Class Woman
TTITLE12=Clarence Garlow - Boogie Mood
TTITLE13=Clarence Garlow - Blues As You Like It
TTITLE14=Lester Williams - I'm So Glad I Could Jump and Shout
TTITLE15=Lester Williams - Hey Jack
TTITLE16=Curley Rash - Humble Road Boogie
TTITLE17=Art Gunn - Boogie Woogie Blues
TTITLE18=Barney Vordeman - Let's Call It Quits
TTITLE19=Bill Grady - Ramblin Man
TTITLE20=Hubert Robison - Boogie The Joint
TTITLE21=Hubert Robison - Old Woman Boogie
TTITLE22=Clarence Garlow - Jumpin' For Joy
TTITLE23=Hubert Robison - Bad Luck and Trouble
TTITLE24=Hubert Robison - Room and Board Boogie
TTITLE25=Lester Williams - Texas Town
TTITLE26=Lester Williams - Dowling Street Hop
EXTD=
EXTT0=
EXTT1=
EXTT2=
EXTT3=
EXTT4=
EXTT5=
EXTT6=
EXTT7=
EXTT8=
EXTT9=
EXTT10=
EXTT11=
EXTT12=
EXTT13=
EXTT14=
EXTT15=
EXTT16=
EXTT17=
EXTT18=
EXTT19=
EXTT20=
EXTT21=
EXTT22=
EXTT23=
EXTT24=
EXTT25=
EXTT26=
PLAYORDER=
